<?xml version="1.0" standalone="no"?><!DOCTYPE svg PUBLIC "-//W3C//DTD SVG 1.1//EN" "http://www.w3.org/Graphics/SVG/1.1/DTD/svg11.dtd"><svg t="1719906876061" class="icon" viewBox="0 0 1024 1024" version="1.1" xmlns="http://www.w3.org/2000/svg" p-id="50467" xmlns:xlink="http://www.w3.org/1999/xlink" width="200" height="200"><path d="M124.76 796.08c0-30.7 0.01-61.4-0.01-92.11 0-2.45 0.01-4.91-0.25-7.33-1.19-11.06 1.18-21.35 6.62-30.96 5.11-9.01 10.35-17.94 15.53-26.91 96.97-167.95 193.94-335.89 290.87-503.86 6.01-10.41 13.36-19.59 22.96-26.87C477.72 95 497.2 89.22 518.71 90.71c12.56 0.87 24.38 4.58 35.33 10.88 12.56 7.23 25.13 14.47 37.69 21.72 18.92 10.92 37.82 21.85 56.75 32.76 9.91 5.71 18.48 12.97 25.46 22.05 20.84 27.09 23.49 63.61 6.62 93.56-8.5 15.09-17.28 30.02-25.95 45.03-93.29 161.59-186.59 323.18-279.88 484.77-0.94 1.63-1.87 3.27-2.86 4.87-5.06 8.22-11.9 14.5-20.51 18.89-3.69 1.88-7.35 3.82-10.94 5.88-52.35 30.21-104.7 60.42-157 90.71-7.72 4.47-15.78 6.93-24.75 6.31-17.18-1.19-32.06-15.49-33.75-32.62-0.2-2.06-0.26-4.14-0.26-6.21-0.02-31.08-0.01-62.16-0.01-93.23h0.11zM438.7 283.24c-3.06 3.96-228 393.29-230.58 398.9 0.08 0.17 0.13 0.36 0.25 0.5 0.24 0.28 0.48 0.6 0.79 0.79 0.95 0.6 1.94 1.16 2.92 1.72 35.55 20.49 71.1 40.98 106.65 61.46 0.15 0.09 0.36 0.09 0.54 0.09 0.19 0.01 0.37-0.03 0.95-0.1 1.2-2.05 2.54-4.31 3.85-6.58 57.03-98.77 114.06-197.55 171.09-296.32 17.41-30.15 34.83-60.3 52.21-90.47 0.99-1.73 2.49-3.3 2.47-5.83-36.97-21.34-73.95-42.69-111.14-64.16z m149.04-0.48c0.83-1.23 1.62-2.27 2.27-3.38 8.2-14.17 16.37-28.35 24.55-42.53 0.47-0.81 0.96-1.62 1.34-2.48 2.09-4.69 0.93-9.55-3.12-12.6-1.34-1.01-2.87-1.8-4.33-2.64-29.33-16.94-58.66-33.88-88-50.81-1.3-0.75-2.59-1.54-3.96-2.16-4.73-2.12-9.45-0.91-12.56 3.19-0.68 0.89-1.21 1.9-1.78 2.88-8.19 14.17-16.38 28.35-24.55 42.53-0.63 1.09-1.07 2.29-1.76 3.79 36.58 21.12 72.89 42.08 109.22 63.04 0.79 0.45 1.68 0.73 2.68 1.17zM199.81 825.4c0.77-0.14 1.37-0.11 1.81-0.36 16.61-9.55 33.2-19.11 49.78-28.71 0.44-0.25 0.7-0.81 1.07-1.26-0.47-0.43-0.83-0.9-1.3-1.17-16.42-9.5-32.84-18.98-49.29-28.44-0.58-0.33-1.34-0.33-2.04-0.49-0.59 4.38-0.93 47.79-0.46 58.24 0.03 0.7 0.26 1.38 0.43 2.19zM824.77 433.62c15.91 5.88 31.6 11.68 47.3 17.49 15.88 5.88 31.75 11.78 47.63 17.65 15.62 5.77 31.27 11.46 48.04 17.84-24.86 9.32-48.51 17.99-72.13 26.72-23.47 8.67-46.92 17.38-70.69 26.19-4.71 11.56-8.8 23.46-13.21 35.24-4.42 11.81-8.75 23.64-13.13 35.47-4.38 11.82-8.77 23.64-13.14 35.46-4.37 11.81-8.74 23.62-13.13 35.52-2.32-1.05-2.33-3.18-2.95-4.84-6.79-18.15-13.5-36.33-20.22-54.51-9.46-25.59-18.9-51.18-28.4-76.76-2.28-6.14-0.92-5.09-7.3-7.45-43.41-16.07-86.81-32.13-130.22-48.2-2.09-0.77-4.16-1.61-6.25-2.42 0.2-0.47 0.24-0.63 0.33-0.75 0.11-0.14 0.27-0.26 0.42-0.36 0.16-0.1 0.33-0.19 0.5-0.27 0.34-0.16 0.68-0.33 1.03-0.47 0.35-0.14 0.72-0.23 1.07-0.36 45.52-16.86 91.04-33.71 136.56-50.57 0.35-0.13 0.69-0.29 1.03-0.46 0.17-0.08 0.32-0.2 0.9-0.59 0.58-1.53 1.33-3.44 2.04-5.37 16.13-43.58 32.26-87.17 48.41-130.74 0.63-1.7 0.81-3.68 2.78-5.23 3.44 7.95 6.05 15.92 9 23.74 2.92 7.75 5.76 15.52 8.63 23.29 2.94 7.94 5.89 15.88 8.83 23.81 2.94 7.94 5.88 15.88 8.81 23.82 2.87 7.77 5.7 15.55 8.58 23.31 2.93 7.92 5.9 15.83 8.88 23.8zM57.88 209.78c5.41-2.02 9.62-3.62 13.85-5.18 29.3-10.85 58.59-21.69 87.89-32.54 1.06-0.39 2.1-0.85 3.18-1.17 1.38-0.42 2.24-1.31 2.73-2.63 0.46-1.23 0.91-2.47 1.37-3.71 11.68-31.59 23.36-63.19 35.08-94.78 0.7-1.89 1.05-4 2.96-5.91 13.33 35.55 26.17 70.87 39.43 106.3 35.29 13.07 70.56 26.12 105.91 39.21-1.14 2.26-3.26 2.26-4.91 2.88-15.33 5.76-30.69 11.4-46.05 17.08-16.42 6.07-32.83 12.13-49.25 18.19-0.35 0.13-0.72 0.24-1.07 0.37-5.41 2.14-4.42 1.17-6.34 6.28-3.84 10.22-7.58 20.47-11.37 30.71-8.02 21.71-16.04 43.43-24.08 65.13-0.69 1.86-1.51 3.67-2.62 6.34-1.07-2.53-1.85-4.2-2.48-5.92-10.98-29.65-21.94-59.3-32.9-88.96-0.85-2.29-1.86-4.55-2.47-6.91-0.94-3.62-3.06-5.55-6.65-6.81-13.67-4.8-27.22-9.94-40.81-14.96-18.54-6.85-37.07-13.69-55.6-20.56-1.58-0.56-3.08-1.28-5.8-2.45zM744.75 813.18c-3.07 1.22-4.97 2.02-6.9 2.74-31.4 11.63-62.81 23.24-94.22 34.86-0.53 0.2-1.06 0.41-1.61 0.54-3 0.72-4.66 2.52-5.7 5.54-3.39 9.78-7.09 19.44-10.68 29.15-8.35 22.59-16.69 45.18-25.06 67.76-0.64 1.73-1.42 3.41-2.51 5.98-1.16-2.92-2.01-4.96-2.77-7.02-11.63-31.4-23.24-62.81-34.87-94.21-2.48-6.71-1.17-5.25-7.77-7.7-31.58-11.7-63.17-23.36-94.74-35.08-1.85-0.69-3.95-0.97-5.69-2.88 2.12-0.85 4-1.66 5.91-2.37 31.4-11.63 62.81-23.24 94.22-34.86 0.18-0.07 0.36-0.12 0.53-0.19 6.54-2.44 5.2-1.35 7.42-7.33 11.65-31.4 23.26-62.8 34.89-94.21 0.78-2.1 1.61-4.19 2.5-6.49 1.98 1.27 2.13 3.25 2.73 4.87 10.35 27.86 20.64 55.75 30.95 83.63 1.7 4.59 3.55 9.12 5.03 13.78 0.9 2.82 2.59 4.24 5.3 5.22 14.68 5.32 29.31 10.79 43.95 16.2 17.65 6.52 35.3 13.02 52.94 19.55 1.77 0.62 3.46 1.39 6.15 2.52z" p-id="50468" fill="#915bfb"></path></svg>